<svg xmlns="http://www.w3.org/2000/svg" viewBox="0 0 489.999 489.999" style="enable-background:new 0 0 489.999 489.999" xml:space="preserve"><path d="M413.437 367.5h-22.968V7.656A7.656 7.656 0 0 0 382.813 0H76.562a7.656 7.656 0 0 0-7.656 7.656V467.03c0 12.665 10.304 22.969 22.968 22.969h306.25c12.664 0 22.968-10.304 22.968-22.969v-91.875a7.655 7.655 0 0 0-7.655-7.655zM91.874 474.687c-4.222 0-7.656-3.435-7.656-7.656V15.313h290.937v451.718c0 2.683.463 5.261 1.312 7.656H91.874zm313.907-7.656c0 4.222-3.434 7.656-7.656 7.656-4.221 0-7.656-3.435-7.656-7.656v-84.219h15.312v84.219z"/><path d="M329.219 84.219H199.062a7.656 7.656 0 0 0 0 15.312h130.156a7.656 7.656 0 0 0 .001-15.312zM329.219 160.781H199.062a7.656 7.656 0 0 0 0 15.312h130.156a7.656 7.656 0 0 0 .001-15.312zM170.681 55.836l-32.869 32.867-9.897-9.898a7.657 7.657 0 0 0-10.828 0 7.656 7.656 0 0 0-.001 10.828l15.312 15.312a7.658 7.658 0 0 0 10.827 0l38.282-38.281a7.656 7.656 0 1 0-10.826-10.828zM170.681 132.399l-32.869 32.867-9.897-9.899a7.657 7.657 0 0 0-10.828 0 7.656 7.656 0 0 0-.001 10.828l15.312 15.312a7.658 7.658 0 0 0 10.827 0l38.282-38.281a7.656 7.656 0 1 0-10.826-10.827zM329.219 237.344H199.062a7.656 7.656 0 0 0 0 15.312h130.156a7.656 7.656 0 0 0 .001-15.312zM329.219 313.906H199.062a7.656 7.656 0 0 0 0 15.312h130.156a7.656 7.656 0 0 0 .001-15.312zM170.681 208.961l-32.869 32.868-9.897-9.899a7.657 7.657 0 0 0-10.828 0 7.656 7.656 0 0 0-.001 10.828l15.312 15.313a7.658 7.658 0 0 0 10.827 0l38.282-38.281c2.991-2.99 2.991-7.838.001-10.828s-7.839-2.991-10.827-.001zM170.681 285.524l-32.869 32.867-9.897-9.898a7.658 7.658 0 0 0-10.829 10.827l15.312 15.312a7.658 7.658 0 0 0 10.827 0l38.282-38.281a7.655 7.655 0 0 0 .001-10.827 7.655 7.655 0 0 0-10.827 0zM329.219 390.468H199.062a7.656 7.656 0 0 0 0 15.312h130.156a7.656 7.656 0 0 0 .001-15.312zM170.681 362.086l-32.869 32.867-9.897-9.899a7.658 7.658 0 0 0-10.829 10.828l15.312 15.312a7.658 7.658 0 0 0 10.827 0l38.282-38.281a7.656 7.656 0 1 0-10.826-10.827z"/></svg>
